<?xml version="1.0" encoding="UTF-8"?>
<svg width="100px" height="100px" viewBox="0 0 100 100" version="1.1" xmlns="http://www.w3.org/2000/svg" xmlns:xlink="http://www.w3.org/1999/xlink">
    <!-- Generator: Sketch 52.5 (67469) - http://www.bohemiancoding.com/sketch -->
    <title>Favicon_100x100_light Copy 4</title>
    <desc>Created with Sketch.</desc>
    <g id="Favicon_100x100_light-Copy-4" stroke="none" stroke-width="1" fill="none" fill-rule="evenodd">
        <circle id="Oval" stroke="#000000" fill="#000000" fill-rule="nonzero" cx="50" cy="50" r="15.625"></circle>
        <path d="M16.8740863,50 C16.8740863,56.9085121 19.3190495,63.8590694 23,69 C29.0873023,77.5017168 38.4329948,83 50,83 C56.1305714,83 63,81 69,77 C71.2325434,75.5116378 74.7304663,71.8464526 77,69 C77.9830548,67.7670512 78.9061057,66.9687654 79,68.2638366 L79,76 C79,77.1045695 79.8954305,78 81,78 L92,78 C90.8689137,80.2222222 89.6041479,81.5491336 88.2247308,83.3333333 C86.2984061,85.8249278 83.4388549,87.8397872 80.3071268,90 C71.668577,95.9587249 59.1753528,100 50.6222588,100 C22.6862715,100 0,77.5925926 0,50 C0,22.4074074 22.6862715,0 50.6222588,0 C59.3565342,0 69.3372098,3.04263224 77.7621826,8.39160839 C82.4624921,11.3758131 91.6179897,20 91.6179897,21.1111111 C88.0689218,21.1111111 84.5198539,21.1111111 80.970786,21.1111111 L80.970786,21.1111111 C79.8776916,21.1111111 78.9870859,21.9887077 78.9710025,23.0816838 L78.8363533,32.2320032 C78.8363533,35.6853062 76.0594358,28.2945768 69,23 C66.3333333,21 62.6666667,19.3333333 58,18 C57.7342444,17.9174619 54,17 51,17 C48.4241699,17 45,17 42,18 C38.6791395,19.1069535 35,20 31,23 C27,26 25.306732,27.916678 23,31 C18.5853886,36.9008452 16.8740863,43.0914879 16.8740863,50 Z" id="c" stroke="#333333" fill="#000000"></path>
    </g>
</svg>