<?xml version="1.0" encoding="UTF-8"?>
<svg width="1400px" height="660px" viewBox="0 0 1400 660" version="1.1" xmlns="http://www.w3.org/2000/svg" xmlns:xlink="http://www.w3.org/1999/xlink">
    <!-- Generator: Sketch 52.5 (67469) - http://www.bohemiancoding.com/sketch -->
    <title>Artboard Copy 19</title>
    <desc>Created with Sketch.</desc>
    <g id="Artboard-Copy-19" stroke="none" stroke-width="1" fill="none" fill-rule="evenodd">
        <g id="Group-2" transform="translate(271.000000, 31.000000)">
            <path d="M373,579.497948 C373,588.058446 345.016314,595 310.5,595 C275.983686,595 248,588.058446 248,579.497948 C248,570.941554 275.983686,564 310.5,564 C345.016314,564 373,570.941554 373,579.497948" id="Fill-54" fill="#333333"></path>
            <g id="Group">
                <text id="NOT-SURE-WHERE-TO-ST" font-family="Comfortaa-Bold, Comfortaa" font-size="30" font-weight="bold" line-spacing="37" letter-spacing="-0.2385106" fill="#333333">
                    <tspan x="37.8040424" y="32">NOT SURE </tspan>
                    <tspan x="35.4640424" y="69">WHERE TO </tspan>
                    <tspan x="63.6355318" y="106">START?</tspan>
                </text>
                <path d="M96.4441888,155.600755 C96.1854984,154.058403 94.9716436,152.92511 93.5786954,152.92511 L26.5161371,152.92511 C15.1934581,152.92511 6,145.57323 6,136.511352 L6,23.4137577 C6,14.3697615 15.1934581,7 26.5161371,7 L212.503762,7 C223.806542,7 233,14.3697615 233,23.4137577 L233,136.511352 C233,145.57323 223.806542,152.92511 212.503762,152.92511 L142.053293,152.92511 C140.958833,152.92511 139.943971,153.629227 139.44649,154.728991 C129.49686,176.789099 134.650768,205.298028 154.291338,237.171073 C163.246005,251.716126 173.175735,263.726356 179.642995,271 C113.776444,254.275537 96.6232821,156.633461 96.4441888,155.600755 Z M192.061555,276.054461 C192.580994,274.744063 192.281317,273.20858 191.302376,272.254753 C190.643089,271.601783 125.034017,206.590013 144.492981,158.546556 L213.548596,158.546556 C228.132829,158.546556 240,148.270632 240,135.636883 L240,22.9096734 C240,10.2781531 228.132829,1.7028913e-13 213.548596,1.7028913e-13 L26.4514039,1.7028913e-13 C11.8671706,1.7028913e-13 -9.09494702e-12,10.2781531 -9.09494702e-12,22.9096734 L-9.09494702e-12,135.636883 C-9.09494702e-12,148.270632 11.8671706,158.546556 26.4514039,158.546556 L91.5701944,158.546556 C93.1085313,166.203914 98.362851,188.99993 110.269978,212.921373 C129.36933,251.361933 156.61987,273.86155 189.044816,277.9688 C189.164687,277.982171 189.284557,278 189.384449,278 C190.543197,278 191.602052,277.246744 192.061555,276.054461 Z" id="Fill-293-Copy" fill="#2C2C2A"></path>
            </g>
            <path d="M337.747869,408.577892 C341.349242,394.200359 350.820569,383.349712 359.781466,383.349712 C360.632184,383.349712 361.482902,383.454865 362.276906,383.642435 C369.763225,385.518136 374.498889,396.203949 373.534742,409.075237 C373.534742,409.183232 373.534742,409.311121 373.534742,409.430484 C373.534742,409.620896 373.648171,427.528158 364.573845,436.30985 C364.51713,436.375215 364.460416,436.434896 364.403701,436.480368 C359.554608,441.774961 353.883154,443.656346 347.70127,442.130207 C343.476037,441.070152 340.01645,437.230648 338.031441,431.325032 C335.847932,424.791339 335.734502,416.691721 337.747869,408.577892 Z M345.687904,450.229826 C347.757984,450.730013 349.828065,451 351.841431,451 C358.70389,451 365.14099,447.976142 370.443799,442.23536 C381.588206,431.344926 381.871779,411.851844 381.871779,409.515743 C383.062784,392.407075 375.860038,378.441627 364.290272,375.545659 C362.844051,375.190412 361.312759,375 359.781466,375 C346.907266,375 334.231567,388.272007 329.694404,406.557251 C327.284036,416.21427 327.45418,425.962232 330.148121,433.993643 C333.068919,442.675866 338.598587,448.459278 345.687904,450.229826 Z" id="Fill-289-Copy" fill="#333333"></path>
            <path d="M371.667715,354.852923 C370.649352,354.476625 369.686035,354.122962 368.860335,353.837202 C368.007111,353.647638 367.263981,353.525978 366.658468,353.39866 C365.447441,353.194949 364.731835,353.067631 364.731835,353.067631 C364.649265,353.044996 364.566695,353.044996 364.511648,353.025191 C362.282258,352.776212 360.273054,354.400234 360.025344,356.683484 C359.777634,358.963905 361.373988,361.026469 363.575855,361.275448 L364.208891,361.357498 C364.208891,361.357498 364.676788,361.416913 365.530011,361.501792 C365.942861,361.561208 366.465805,361.606477 367.043795,361.665892 C367.621785,361.83848 368.254821,362.019555 368.915381,362.228924 C369.658511,362.336438 370.291548,362.831566 371.089725,363.14279 C371.887902,363.434208 372.575985,364.08212 373.346638,364.580077 C374.144815,365.055401 374.777852,365.867412 375.576028,366.529469 C376.291635,367.276406 376.979718,368.088417 377.640278,368.940038 C378.218269,369.851075 378.933875,370.708355 379.429295,371.678807 C380.007285,372.618136 380.502705,373.591418 380.943079,374.570357 C381.878872,376.482968 382.566955,378.387091 383.117422,380.033748 C383.640365,381.691721 384.025692,383.086569 384.245879,384.085314 C384.466065,385.04162 384.548635,385.562212 384.548635,385.598993 C384.768822,387.11833 386.172512,388.196296 387.631249,387.969951 C389.145032,387.760583 390.190919,386.328954 389.970732,384.786982 C389.970732,384.832251 389.915686,384.124924 389.723022,382.964909 C389.557882,381.81904 389.227602,380.240287 388.787229,378.327676 C388.264286,376.437699 387.631249,374.23367 386.722979,371.927785 C386.282606,370.790404 385.732139,369.602096 385.126625,368.419446 C384.603682,367.236796 383.833029,366.093756 383.172469,364.928082 C382.401815,363.787872 381.576115,362.667466 380.722892,361.629111 C379.759575,360.627537 378.933875,359.549571 377.860465,358.73756 C376.814578,357.925549 375.878785,357.014513 374.750328,356.45431 C373.676918,355.868644 372.713602,355.161317 371.667715,354.852923" id="Fill-290-Copy" fill="#333333"></path>
            <path d="M356.288674,427.989688 C360.975494,427.720632 364.408515,422.127095 363.96073,415.516809 C363.542797,408.878202 359.423172,403.746309 354.736352,404.009701 C350.049532,404.28159 346.616512,409.88079 347.034445,416.491076 C347.452378,423.124019 351.601855,428.261576 356.288674,427.989688" id="Fill-291-Copy" fill="#333333"></path>
            <path d="M443.850736,213.821476 C443.594789,210.106651 443.026017,206.352034 441.660965,202.699738 C440.324352,199.0446 438.106142,195.542944 435.176968,192.868383 C432.33311,190.156874 428.778287,188.383308 425.479412,187.14977 L424.341868,186.734801 C423.716219,186.504578 423.403395,186.461944 422.919939,186.336885 L420.303589,185.64906 C419.450432,185.398941 418.511959,185.376203 417.630363,185.231248 C416.720328,185.148823 415.838732,184.938496 414.928697,185.003868 C411.26012,184.856071 407.64842,185.606426 404.321106,186.774592 C400.993792,188.090555 398.093056,189.946547 395.505145,192.032761 C393.059427,194.226981 390.812779,196.560471 389.021148,199.090076 C387.201079,201.591259 385.665396,204.180552 384.414098,206.829532 C383.760011,208.105704 383.191239,209.543884 382.650906,210.922377 C382.16745,212.30087 381.797748,213.301343 381.342731,214.782158 C380.631766,217.243549 379.892363,219.645253 379.181399,221.981585 C380.802398,197.438727 379.266714,174.504584 370.991087,161.168731 C366.810615,154.387114 361.09446,150.234582 354.013253,148.856089 C342.922206,146.684607 333.423719,148.648604 325.802179,154.69692 C309.535309,167.597908 307.885871,194.622054 307.743679,197.336406 C307.402416,200.192871 304.615434,223.692622 301.743138,249.636711 C298.984595,230.226963 293.609703,211.277659 283.570883,199.610209 C277.229079,192.262983 269.522223,188.258248 260.592508,187.672744 C249.273952,186.922389 240.457992,190.094344 234.343696,197.06355 C221.461018,211.820529 226.03963,238.406968 226.63684,241.536289 L237.585695,378.819973 C227.575314,374.184257 217.508055,369.676443 207.18485,365.609179 C200.9568,363.164841 194.614996,360.873984 188.130999,358.929883 C181.618564,356.991466 174.935497,355.360013 167.939605,354.649449 C161.02903,353.921833 153.492805,354.044049 146.269405,357.090945 C142.714582,358.620078 139.35883,361.016097 136.799357,364.003306 C135.491182,365.464224 134.410516,367.089993 133.443604,368.7385 C133.017026,369.594018 132.562008,370.426798 132.13543,371.288001 L131.026325,373.996669 C130.685062,374.917559 130.51443,375.628122 130.258483,376.438164 L130.059413,377.026511 L129.974097,377.316421 L129.888781,377.631911 L129.831904,377.793919 L129.547518,379.092829 C129.206255,380.846499 128.665922,382.51206 128.495291,384.325418 C128.324659,386.164356 127.926519,387.895288 128.011835,389.793913 L128.011835,392.593533 C128.068712,393.531477 128.239344,394.512054 128.353098,395.45284 C129.12094,403.217876 134.837095,410.684476 141.377969,414.0696 C147.861966,417.844113 154.687226,419.472724 161.313416,420.910904 C167.968044,422.309293 174.565795,423.275659 181.078231,424.335819 C187.533789,425.401664 193.93247,426.549935 200.075204,428.215495 C206.217938,429.88674 212.133163,432.078118 217.252108,435.292706 C218.531844,436.065799 219.669388,437.023639 220.892247,437.879157 C221.916036,438.87963 223.167333,439.840312 224.048929,440.883419 C224.958964,441.972002 225.868999,442.742253 226.779033,444.285596 L228.144085,446.351915 L229.366944,448.293174 C232.836451,454.134004 236.903169,459.625238 241.225833,464.886249 C245.576936,470.144418 250.496811,474.944984 255.814826,479.242471 C256.525791,479.80808 257.265194,480.331054 257.976159,480.86824 C257.919281,480.913716 257.919281,480.953508 257.862404,480.996142 C257.094563,481.996615 256.013896,483.477429 254.93323,485.566485 C253.909441,487.652699 252.800337,490.429581 252.487512,493.891446 C252.117811,497.339099 252.885652,501.531423 254.990107,505.143927 C257.009247,508.818961 260.137491,511.800485 263.578559,514.327248 C267.076505,516.851169 270.972591,518.894749 275.067747,520.64842 C279.21978,522.404932 283.371813,523.820374 287.779793,525.218763 C292.159335,526.57736 296.624193,527.810898 301.117489,528.848321 C310.160958,530.934535 319.34662,532.355661 328.105704,532.838845 C336.836349,533.296447 345.168854,532.818949 352.221622,530.897585 C355.748006,529.953957 358.961566,528.598202 361.577916,526.86727 C364.222704,525.156234 366.270282,523.047281 367.52158,521.026439 C368.772877,518.977175 369.370088,517.186555 369.654473,515.975755 C369.938859,514.742217 370.052614,514.07713 370.052614,514.07713 C370.365438,512.616211 369.426965,511.152451 367.976597,510.797169 C367.777527,510.757378 367.52158,510.717586 367.32251,510.717586 C366.071212,510.717586 364.933669,511.595842 364.620844,512.883383 L364.535529,513.261403 C364.535529,513.261403 364.421774,513.69911 364.222704,514.554628 C363.995195,515.393093 363.568617,516.581155 362.715459,517.911329 C361.862302,519.250031 360.440373,520.688211 358.421233,521.964383 C356.373655,523.237712 353.757306,524.323453 350.685939,525.096546 C344.543205,526.63989 336.779472,526.995171 328.503844,526.389772 C320.228216,525.784372 311.412256,524.258081 302.766927,522.069546 C298.444262,520.983805 294.150036,519.733214 289.998003,518.334825 C285.902847,516.959175 281.722375,515.430042 278.082237,513.804273 C274.385221,512.133028 270.944152,510.257141 268.157171,508.125451 C265.37019,505.999445 263.123542,503.680166 261.900683,501.326781 C260.649385,498.987606 260.308122,496.710961 260.56407,494.664539 C260.76314,492.59822 261.502543,490.784863 262.241946,489.366578 C263.009788,487.925556 263.806068,486.859711 264.346401,486.191781 C264.602348,485.921767 264.744541,485.731336 264.886734,485.586381 C267.645277,487.234888 270.375381,488.741282 273.560502,489.929344 C274.8118,490.389789 276.262167,489.824181 276.859378,488.613381 C277.485026,487.297418 276.944693,485.714282 275.664957,485.066249 L275.551203,485.026457 C272.906415,483.733232 270.147872,481.934085 267.5884,480.120728 C265.000489,478.241998 262.55477,476.23821 260.137491,474.129257 C255.33137,469.917038 251.065583,465.11363 247.027304,460.128317 C243.045903,455.100371 239.348887,449.836517 236.192204,444.225909 L234.798714,441.949264 L233.433662,439.882946 C232.66582,438.566982 231.215452,436.986689 229.992593,435.520087 C228.712857,434.062011 227.319366,432.979112 225.982753,431.700098 C224.503947,430.634253 223.110456,429.446191 221.546334,428.530985 C215.460477,424.668363 208.834287,422.22971 202.208098,420.387929 C195.581908,418.577414 188.955718,417.366614 182.386405,416.258135 C175.845531,415.152499 169.333096,414.169079 163.01973,412.838904 C156.791681,411.460411 150.563631,409.828958 145.615318,406.864487 C144.278704,406.1994 143.283354,405.284195 142.174249,404.465626 C141.235776,403.507786 140.183548,402.62953 139.529461,401.523893 C138.676304,400.526262 138.249725,399.269986 137.652515,398.121716 C137.311252,396.828491 136.799357,395.640429 136.714041,394.219302 C135.9462,388.750806 137.169059,382.51206 139.131321,376.688283 C140.041356,374.229733 141.520162,371.597807 143.254915,369.636652 C145.018108,367.612967 147.17944,366.069624 149.710474,365.003779 C154.744103,362.877773 160.886837,362.604917 167.058009,363.292742 C173.229182,363.943618 179.457231,365.501173 185.656842,367.277582 C191.828015,369.093781 197.970749,371.265263 204.085044,373.618649 C216.256758,378.33679 228.286278,383.72286 240.230483,389.273781 L240.600184,389.415894 C241.851482,389.899077 243.358727,389.734226 244.49627,388.833232 C245.008165,388.441001 245.491621,388.023189 246.11727,387.625274 L247.852023,386.39742 C249.018005,385.558956 250.32618,384.930818 251.577477,384.183305 C252.203126,383.828023 252.800337,383.43295 253.454424,383.100406 L255.473563,382.239204 L259.454965,380.491218 L259.853105,380.323525 C261.218157,379.718125 261.985999,378.169097 261.530981,376.688283 C261.047526,375.085252 259.398088,374.184257 257.777089,374.644702 L253.084722,376.023195 L250.72432,376.733759 C249.956478,377.026511 249.217075,377.359054 248.477672,377.671702 L246.202585,378.632384 C246.11727,378.646595 246.031954,378.692071 245.975077,378.737547 L234.940907,240.643822 C234.912468,240.476129 234.884029,240.305593 234.884029,240.1379 C234.798714,239.887782 229.935716,214.782158 240.628623,202.554783 C245.008165,197.563786 251.349969,195.437781 260.052175,196.000547 C266.735242,196.438254 272.366082,199.399882 277.229079,205.055966 C297.67642,228.808678 296.624193,289.894389 295.600404,310.989594 C295.372895,313.954065 295.202264,316.477986 295.145386,318.461879 C295.031632,320.735681 296.766386,322.657045 299.041472,322.802 C299.126788,322.802 299.212104,322.802 299.268981,322.802 C301.430313,322.802 303.250382,321.176231 303.477891,318.982011 C303.50633,318.359557 303.762277,315.312662 303.989786,310.534834 C306.463942,278.769809 315.962429,199.0446 316.047745,198.169186 C316.076183,198.044127 316.104622,197.938964 316.104622,197.813904 C316.104622,197.563786 317.185288,172.165409 330.978001,161.23126 C336.694156,156.703551 343.718486,155.325058 352.420692,157.036094 C357.169936,157.97688 360.923829,160.748077 363.90988,165.551486 C372.868033,180.052663 373.863384,211.610203 366.753738,256.753714 C361.321969,291.437733 352.904148,321.991957 352.847271,322.279025 C352.193184,324.515878 353.529797,326.809577 355.748006,327.414977 C355.918638,327.480349 356.117708,327.497402 356.288339,327.52014 C358.335917,327.815735 360.29818,326.542405 360.866951,324.515878 C361.464162,322.406926 367.407825,300.680741 372.469893,273.19615 C373.038665,271.274787 375.029366,264.496012 378.15761,253.911461 C380.034556,247.593131 382.309643,239.91052 384.897554,231.099535 C386.205729,226.699726 387.570781,222.024219 389.049587,217.078698 C389.305534,216.095279 389.817429,214.63436 390.215569,213.51167 C390.642148,212.445825 391.040288,211.37998 391.609059,210.254448 C392.632848,208.000541 393.941023,205.809163 395.419829,203.742845 C396.898636,201.636735 398.690267,199.777902 400.595652,198.044127 C402.586352,196.418358 404.776123,195.039865 407.136526,194.059288 C409.525367,193.243561 412.0564,192.660899 414.729627,192.766062 C415.383715,192.680795 416.066241,192.868383 416.720328,192.933755 C417.402854,193.036076 418.056941,193.016181 418.767906,193.203769 L420.787045,193.74664 C421.071431,193.809169 421.554887,193.91149 421.69708,193.976862 L422.863062,194.394674 C423.687781,194.661845 424.228114,194.934702 424.853763,195.207558 C425.479412,195.437781 426.076622,195.812958 426.702271,196.125606 C427.327919,196.460992 427.868253,196.856065 428.465463,197.231243 C428.977357,197.649054 429.546129,198.044127 430.029585,198.504572 C432.020286,200.320772 433.527531,202.614471 434.551319,205.351561 C436.598897,210.817214 436.769529,217.559039 436.286073,224.300864 C435.233845,237.906732 431.764338,252.078207 427.953568,266.246841 C424.029044,280.46095 419.535748,294.774538 414.758066,309.051177 L411.174804,319.715312 L410.719787,321.054014 L410.492278,321.719101 L410.378524,322.051645 L410.321647,322.219338 L410.179454,322.702521 L409.525367,325.456664 L408.188753,330.922318 L407.534666,333.653723 L406.169614,342.297016 C405.799912,344.212695 405.714596,346.117005 405.572404,348.01563 C405.401772,349.914255 405.259579,351.812881 405.088948,353.711506 C404.975193,357.491703 404.918316,361.243477 404.918316,364.981041 C405.003632,368.678812 405.03207,372.390795 405.202702,376.023195 C405.458649,383.305049 405.743035,390.444789 405.799912,397.433891 C405.743035,400.918493 405.856789,404.428676 405.714596,407.808116 C405.657719,409.556101 405.515526,411.167659 405.401772,412.838904 C405.259579,414.504465 405.145825,416.17571 404.918316,417.824217 C404.150474,424.440983 403.04137,430.912794 401.591002,437.108906 C398.747144,449.503974 394.737304,460.918463 389.732113,470.732765 C384.7838,480.535697 378.612627,488.613381 371.901121,494.104615 C368.545369,496.901392 365.018984,498.839809 361.634793,500.343361 C360.781636,500.675905 359.928478,500.991395 359.103759,501.304043 C358.27904,501.636586 357.425883,501.781541 356.601164,502.014606 C355.008603,502.534738 353.387604,502.702431 351.880359,502.95255 C345.766064,503.7228 340.874628,502.784857 337.604191,502.224933 C334.362192,501.36373 332.599,500.903285 332.599,500.903285 L332.343053,500.843598 C330.892685,500.448524 329.357002,501.326781 328.958861,502.807595 C328.560721,504.288409 329.442317,505.811857 330.921124,506.209772 C330.921124,506.209772 332.826509,506.732747 336.40977,507.687744 C340.02147,508.335778 345.510117,509.418676 352.562885,508.563158 C354.297639,508.315882 356.146147,508.108397 358.023093,507.542789 C358.961566,507.269933 359.956917,507.105082 360.923829,506.732747 C361.862302,506.377465 362.857652,506.022183 363.824564,505.644164 C367.749088,503.955865 371.787367,501.719012 375.54126,498.632324 C383.105923,492.515795 389.760552,483.795761 395.050128,473.46417 C400.396581,463.155317 404.605492,451.320174 407.64842,438.507295 C409.155665,432.100856 410.350085,425.438614 411.203243,418.554676 C411.430752,416.846482 411.544506,415.092811 411.743576,413.359037 C411.85733,411.582628 412.027962,409.746532 412.084839,408.052549 C412.255471,404.488364 412.170155,400.986707 412.227032,397.411153 C412.312348,383.160094 411.032611,368.528173 411.772015,354.066788 L412.255471,348.643768 C412.397663,346.821883 412.511418,345.011368 412.852681,343.257698 L413.734277,337.934157 L414.160856,335.265281 L414.843382,332.528191 L416.179995,327.06538 L416.862521,324.32829 L417.658801,321.969219 L421.355817,311.265293 C426.218815,296.943178 430.854304,282.550006 434.892582,268.1881 C436.911722,260.988672 438.76023,253.789244 440.324352,246.589816 C441.860035,239.36765 443.196649,232.16538 443.736982,224.860788 C444.049806,221.211335 444.078245,217.516405 443.850736,213.821476" id="Fill-292-Copy" fill="#333333"></path>
            <path d="M280.702857,403.204608 C280.731209,403.08078 280.759561,402.951192 280.787913,402.827365 C282.857602,389.949273 289.945578,380.538359 297.770704,380.454848 C307.353647,380.454848 315.547347,394.369637 315.660755,410.844495 C315.745811,419.342539 313.761177,427.273278 310.103782,433.193975 C306.786609,438.538728 302.562175,441.501957 298.16763,441.542273 L298.025871,445.769697 L298.025871,441.542273 C291.675044,441.542273 286.741813,438.328509 283.282881,432.02481 C283.226177,431.947058 283.197825,431.877944 283.141121,431.794433 C276.365016,420.989736 280.674506,403.38027 280.702857,403.204608 Z M276.053145,436.237835 C282.347268,447.609835 291.448229,450 298.025871,450 L298.252686,450 C305.567477,449.939526 312.286878,445.562357 317.135054,437.694972 C321.671359,430.420808 324.109622,420.865909 323.996215,410.775382 C323.826103,389.042162 312.286878,372 297.600592,372 C285.664441,372.10079 275.401051,384.155283 272.594213,401.303995 C272.027175,403.58761 267.774389,422.873071 276.053145,436.237835 Z" id="Fill-294-Copy" fill="#333333"></path>
            <path d="M294.950465,424.749801 C299.21962,426.092166 304.285684,421.896914 306.221035,415.42863 C308.184846,408.934252 306.306418,402.570342 302.037262,401.251172 C297.768107,399.908807 292.730504,404.080865 290.766693,410.569444 C288.831342,417.066721 290.68131,423.407436 294.950465,424.749801" id="Fill-295-Copy" fill="#333333"></path>
            <path d="M335.903382,335.732353 C338.738974,336.105434 341.546209,336.599136 344.211665,337.008685 C346.933833,337.479945 349.485865,338.105488 351.95283,338.618826 C354.419794,339.067646 356.659912,339.83064 358.786605,340.366419 C360.913299,340.96391 362.869857,341.398705 364.542856,342.015832 C366.244211,342.590882 367.690362,343.084584 368.909666,343.496938 C371.319919,344.302008 372.709359,344.77888 372.709359,344.77888 L372.90785,344.837787 C374.467426,345.370761 376.225492,344.548859 376.820967,342.980795 C377.388085,341.398705 376.565763,339.645502 374.949476,339.04801 C374.949476,339.04801 373.53168,338.531867 371.03636,337.628617 C369.7887,337.174187 368.285836,336.641213 366.556126,336.001645 C364.826415,335.322805 362.784789,334.829103 360.629739,334.150263 C358.985096,333.693027 357.255386,333.117977 355.440607,332.62147 C354.816777,332.455967 354.192947,332.312906 353.540761,332.167039 C350.988729,331.589184 348.323273,330.893513 345.544393,330.335293 C342.737158,329.841591 339.816498,329.266541 336.867483,328.81211 C333.890112,328.46147 330.884385,327.967768 327.850303,327.723722 C324.81622,327.513338 321.782137,327.162697 318.77641,327.143061 C317.273547,327.081349 315.770683,327.042077 314.324532,327 C312.850024,327.022441 311.375516,327.022441 309.957721,327.042077 C307.093773,327.022441 304.34325,327.246851 301.70615,327.392717 C301.365879,327.415158 301.053964,327.431989 300.742049,327.476871 C298.473576,327.656399 296.318526,327.844343 294.305256,328.088388 C292.036783,328.380121 289.938445,328.669049 288.095311,329.01969 C286.252176,329.305812 284.635889,329.678894 283.303161,329.948186 C281.942078,330.253945 280.921265,330.478354 280.127299,330.708375 C279.418401,330.893513 279.049774,330.994497 279.049774,330.994497 C279.021418,331.014133 278.993062,331.014133 278.964707,331.014133 C276.752945,331.678948 275.505285,333.98476 276.185827,336.164342 C276.838013,338.329898 279.163198,339.561348 281.374959,338.904949 L281.488383,338.882508 C281.488383,338.882508 281.828654,338.784328 282.48084,338.596385 C283.019602,338.411247 283.955347,338.186837 285.174652,337.875468 C286.393956,337.606176 287.868464,337.216264 289.598174,336.927336 C291.299529,336.576695 293.256087,336.248496 295.411137,335.934322 C297.53783,335.611732 299.891371,335.359271 302.358336,335.11242 C304.8253,334.932892 307.4624,334.6636 310.184568,334.621524 C311.545652,334.559811 312.935092,334.514929 314.324532,334.478462 C315.713971,334.500903 317.160123,334.500903 318.577919,334.514929 C321.441866,334.478462 324.334169,334.76178 327.254828,334.88801 C330.175488,335.053513 333.039435,335.463061 335.903382,335.732353" id="Fill-296-Copy" fill="#333333"></path>
            <path d="M274.705135,376.894358 L274.733485,376.854544 C274.733485,376.854544 274.818532,376.709507 274.903579,376.45356 C275.045325,376.2033 275.21542,375.870569 275.442213,375.409864 C275.924149,374.494142 276.689575,373.200187 277.625097,371.715694 C278.645666,370.234044 279.83633,368.544793 281.253787,366.895356 C281.962516,366.056418 282.727943,365.240231 283.550068,364.466702 C284.315495,363.633452 285.222667,362.985052 286.101491,362.234274 C286.980314,361.591562 287.887487,360.96307 288.794659,360.397142 C289.75853,359.979095 290.637354,359.353446 291.572875,359.086124 C292.508397,358.813114 293.358871,358.37516 294.237695,358.306907 C295.088169,358.184621 295.881945,357.891704 296.647372,357.974176 C297.384449,357.951425 298.064829,357.951425 298.68851,357.937206 C299.283842,358.042428 299.794127,358.119212 300.247713,358.207372 C301.126536,358.329658 301.580123,358.39791 301.580123,358.39791 L302.232153,358.497445 C302.345549,358.520196 302.458946,358.520196 302.600692,358.540103 C304.925321,358.642482 306.881412,356.870759 306.994809,354.575766 C307.108205,352.252335 305.350558,350.292917 303.025929,350.164944 C303.025929,350.164944 302.288851,350.142193 301.01314,350.082472 C300.361109,350.042658 299.567333,350 298.68851,350 C297.781337,350.105223 296.789117,350.233196 295.683501,350.375389 C294.577884,350.437954 293.443919,350.938473 292.253255,351.254141 C291.005892,351.564121 289.871927,352.232428 288.652914,352.798356 C287.405551,353.341532 286.356633,354.220284 285.194318,354.971062 C284.117051,355.804313 283.039783,356.702971 282.075912,357.618694 C281.140391,358.625419 280.119822,359.541141 279.354395,360.607587 C278.503921,361.608625 277.738494,362.635258 277.058114,363.678953 C275.640657,365.700936 274.56339,367.705855 273.656217,369.417857 C272.805743,371.172517 272.153713,372.63426 271.756825,373.700706 C271.530031,374.243883 271.359937,374.681837 271.274889,374.97191 C271.161493,375.242077 271.104794,375.409864 271.104794,375.409864 C270.792954,376.331274 271.189842,377.37497 272.125363,377.815768 C273.089234,378.270785 274.251549,377.852738 274.705135,376.894358" id="Fill-297-Copy" fill="#333333"></path>
        </g>
    </g>
</svg>