<?xml version="1.0" encoding="UTF-8"?>
<svg width="282px" height="156px" viewBox="0 0 282 156" version="1.1" xmlns="http://www.w3.org/2000/svg" xmlns:xlink="http://www.w3.org/1999/xlink">
    <!-- Generator: Sketch 52.5 (67469) - http://www.bohemiancoding.com/sketch -->
    <title>Artboard</title>
    <desc>Created with Sketch.</desc>
    <g id="Artboard" stroke="none" stroke-width="1" fill="none" fill-rule="evenodd">
        <path d="M264.432,89.729 C263.675,89.451 263.279,88.614 263.558,87.85 L263.903,86.903 C264.894,86.932 265.915,87.02 266.928,87.174 L266.318,88.848 C266.098,89.451 265.533,89.818 264.938,89.818 C264.77,89.818 264.601,89.788 264.432,89.729" id="Fill-108" fill="#F9EEDC"></path>
        <path d="M264.931,89.891 C259.343,89.451 253.968,90.933 253.888,90.963 C253.865,90.97 253.836,90.97 253.814,90.978 C253.748,90.993 246.993,92.615 238.328,99.84 C238.262,99.899 238.182,99.951 238.108,99.994 C238.071,100.009 234.452,102.102 234.275,105.142 C234.172,106.874 236.764,110.868 239.158,113.078 C238.526,113.629 237.932,114.327 237.403,115.127 C234.444,112.477 231.184,107.601 231.346,104.951 C231.419,103.688 231.837,102.564 232.403,101.595 C232.41,101.587 232.41,101.587 232.417,101.58 C232.696,101.235 232.954,100.861 233.167,100.479 C234.474,98.82 236.074,97.784 236.544,97.505 C245.495,90.067 252.463,88.283 253.124,88.121 C253.689,87.967 258.477,86.69 263.903,86.903 L263.558,87.85 C263.279,88.614 263.675,89.451 264.432,89.729 C264.601,89.788 264.77,89.818 264.938,89.818 L264.931,89.891" id="Fill-109" fill="#F9EEDC"></path>
        <path d="M259.901,110.545 C259.534,110.501 259.13,110.516 258.704,110.501 C258.278,110.531 257.831,110.516 257.375,110.59 C257.14,110.612 256.913,110.641 256.678,110.67 C256.443,110.714 256.2,110.766 255.965,110.81 C255.488,110.883 255.018,111.067 254.548,111.185 C254.079,111.338 253.623,111.537 253.168,111.705 C252.735,111.918 252.309,112.132 251.897,112.337 C251.501,112.579 251.119,112.815 250.759,113.034 C250.4,113.255 250.113,113.512 249.82,113.718 C249.533,113.938 249.276,114.115 249.034,114.357 C248.99,114.393 248.3,114.908 247.602,115.436 C247.411,115.01 247.198,114.606 246.963,114.239 C246.941,114.217 246.919,114.195 246.89,114.173 C246.758,114.034 246.669,113.865 246.604,113.703 C246.596,113.696 246.589,113.689 246.589,113.681 C246.405,113.439 246.214,113.211 246.016,113.005 C246.625,112.579 247.176,112.198 247.184,112.191 C247.418,111.985 247.778,111.757 248.138,111.507 C248.513,111.273 248.902,110.972 249.335,110.743 C249.768,110.509 250.231,110.259 250.701,110.01 C251.2,109.797 251.714,109.583 252.235,109.364 C252.779,109.195 253.315,108.996 253.873,108.857 C254.438,108.74 254.989,108.571 255.554,108.519 C255.841,108.483 256.112,108.439 256.391,108.402 C256.663,108.387 256.942,108.372 257.207,108.358 C257.742,108.306 258.264,108.35 258.756,108.35 C259.248,108.394 259.71,108.409 260.136,108.483 C260.988,108.592 261.686,108.776 262.177,108.915 C262.419,108.989 262.61,109.055 262.75,109.107 C262.897,109.158 262.978,109.195 262.978,109.195 C263.47,109.378 263.719,109.929 263.528,110.421 C263.352,110.891 262.838,111.14 262.368,111.001 L262.266,110.972 C262.266,110.972 262.221,110.957 262.133,110.927 C262.03,110.898 261.869,110.862 261.664,110.81 C261.252,110.722 260.65,110.59 259.901,110.545" id="Fill-110" fill="#F9EEDC"></path>
        <path d="M257.507,136.715 C257.383,137.133 257.045,138.044 256.23,139.116 C256.127,138.998 256.046,138.917 255.995,138.873 C255.951,138.829 255.929,138.808 255.929,138.808 L255.885,138.764 C255.305,138.199 255.29,137.273 255.855,136.686 C256.333,136.194 257.082,136.106 257.654,136.444 C257.588,136.561 257.537,136.657 257.507,136.715" id="Fill-111" fill="#F9EEDC"></path>
        <path d="M264.931,89.891 L264.938,89.818 C265.533,89.818 266.098,89.451 266.318,88.848 L266.928,87.174 C270.203,87.666 273.463,88.841 275.974,91.227 C280.828,95.838 282.95,106.155 280.798,114.701 C278.94,122.103 274.241,127.192 267.56,129.028 C261.333,130.738 258.403,135.144 257.654,136.444 C257.082,136.106 256.333,136.194 255.855,136.686 C255.29,137.273 255.305,138.199 255.885,138.764 L255.929,138.808 C255.929,138.808 255.951,138.829 255.995,138.873 C256.046,138.917 256.127,138.998 256.23,139.116 C255.128,140.563 253.175,142.303 249.739,143.543 C249.577,143.603 249.408,143.624 249.247,143.624 C248.645,143.624 248.08,143.257 247.867,142.656 C247.587,141.892 247.984,141.054 248.748,140.776 C253.932,138.91 254.681,135.914 254.688,135.885 C254.71,135.775 254.754,135.665 254.798,135.555 C254.938,135.276 258.198,128.557 266.781,126.201 C273.977,124.218 276.826,118.468 277.949,113.99 C279.829,106.5 278.038,97.241 273.948,93.349 C271.554,91.08 268.206,90.155 264.931,89.891" id="Fill-112" fill="#F9EEDC"></path>
        <path d="M246.053,116.589 C245.583,115.701 245.032,114.797 244.408,114.129 C244.416,114.121 245.26,113.534 246.016,113.005 C246.214,113.211 246.405,113.439 246.589,113.681 C246.589,113.689 246.596,113.696 246.604,113.703 C246.669,113.865 246.758,114.034 246.89,114.173 C246.919,114.195 246.941,114.217 246.963,114.239 C247.198,114.606 247.411,115.01 247.602,115.436 C246.86,115.987 246.097,116.552 246.053,116.589 Z M245.854,115.377 C245.752,115.194 245.634,115.025 245.517,114.87 C245.576,115.025 245.664,115.179 245.789,115.311 C245.811,115.333 245.833,115.355 245.854,115.377 Z" id="Fill-113" fill="#F9EEDC"></path>
        <path d="M245.789,115.311 C245.664,115.179 245.576,115.025 245.517,114.87 C245.634,115.025 245.752,115.194 245.854,115.377 C245.833,115.355 245.811,115.333 245.789,115.311" id="Fill-114" fill="#F9EEDC"></path>
        <path d="M241.266,102.513 C240.458,102.528 239.782,101.889 239.76,101.081 C239.738,100.266 240.384,99.59 241.192,99.569 C241.221,99.569 241.258,99.569 241.288,99.569 C241.288,99.569 241.479,99.576 241.816,99.59 C241.978,99.598 242.183,99.605 242.411,99.619 C242.646,99.619 242.91,99.657 243.197,99.708 C243.483,99.752 243.799,99.796 244.129,99.862 C244.452,99.957 244.797,100.06 245.157,100.17 C245.509,100.303 245.869,100.472 246.229,100.633 C246.567,100.846 246.927,101.044 247.25,101.294 C247.565,101.558 247.896,101.8 248.16,102.109 C248.447,102.395 248.682,102.703 248.895,103.02 C249.115,103.327 249.291,103.644 249.445,103.945 C249.592,104.253 249.724,104.547 249.82,104.826 C250.018,105.384 250.121,105.861 250.179,106.206 C250.209,106.368 250.231,106.515 250.246,106.632 C250.253,106.72 250.253,106.772 250.253,106.772 C250.312,107.367 249.886,107.888 249.291,107.953 C248.696,108.012 248.167,107.579 248.109,106.985 C248.109,106.992 248.102,106.926 248.094,106.882 C248.08,106.823 248.058,106.743 248.035,106.632 C247.977,106.397 247.874,106.052 247.698,105.662 C247.617,105.457 247.5,105.259 247.382,105.046 C247.257,104.848 247.118,104.627 246.956,104.429 C246.787,104.231 246.618,104.033 246.413,103.864 C246.229,103.665 245.994,103.534 245.781,103.371 C245.554,103.225 245.304,103.115 245.076,102.991 C244.812,102.902 244.57,102.799 244.327,102.726 C244.07,102.667 243.821,102.616 243.586,102.564 C243.343,102.534 243.101,102.528 242.888,102.505 C242.675,102.476 242.477,102.461 242.293,102.484 C242.11,102.484 241.948,102.491 241.823,102.498 C241.559,102.505 241.412,102.505 241.412,102.505 L241.266,102.513" id="Fill-115" fill="#F9EEDC"></path>
        <path d="M238.651,114.129 C238.754,114.071 238.85,113.996 238.931,113.902 C238.835,113.975 238.747,114.048 238.651,114.129 Z M237.403,115.127 C237.932,114.327 238.526,113.629 239.158,113.078 C239.364,113.27 239.562,113.446 239.76,113.608 C238.953,114.1 238.417,114.628 237.711,115.399 C237.609,115.311 237.506,115.223 237.403,115.127 Z" id="Fill-116" fill="#F9EEDC"></path>
        <path d="M238.931,113.902 C238.85,113.996 238.754,114.071 238.651,114.129 C238.747,114.048 238.835,113.975 238.931,113.902" id="Fill-117" fill="#F9EEDC"></path>
        <path d="M240.105,134.762 C238.402,134.534 236.896,133.183 235.883,130.973 C236.346,131.81 237.036,132.361 237.851,132.456 C239.569,132.655 241.199,130.731 241.493,128.175 C241.787,125.613 240.634,123.38 238.916,123.182 C237.198,122.984 235.575,124.901 235.281,127.463 C235.186,128.3 235.245,129.101 235.42,129.806 C235.281,129.402 235.164,128.976 235.068,128.55 C234.613,126.604 234.54,124.423 234.841,122.191 C234.951,121.442 235.09,120.715 235.274,120.018 C235.758,118.16 236.493,116.486 237.403,115.127 C237.506,115.223 237.609,115.311 237.711,115.399 C238.417,114.628 238.953,114.1 239.76,113.608 C239.562,113.446 239.364,113.27 239.158,113.078 C239.217,113.02 239.283,112.969 239.342,112.917 C239.452,112.859 239.547,112.778 239.635,112.682 C239.643,112.682 239.65,112.667 239.657,112.66 C240.648,111.918 241.721,111.5 242.8,111.5 C242.976,111.5 243.16,111.515 243.351,111.537 C244.327,111.669 245.238,112.191 246.016,113.005 C245.26,113.534 244.416,114.121 244.408,114.129 C245.032,114.797 245.583,115.701 246.053,116.589 C246.097,116.552 246.86,115.987 247.602,115.436 C248.292,116.97 248.718,118.858 248.784,120.921 C248.792,120.965 248.792,121.016 248.799,121.053 C248.806,121.126 249.592,128.043 246.427,131.81 C246.413,131.832 246.391,131.868 246.376,131.891 C244.702,134.145 242.58,135.115 240.105,134.762" id="Fill-118" fill="#F9EEDC"></path>
        <path d="M233.174,128.69 C231.911,132.463 229.693,133.183 227.682,133.374 C223.937,133.734 220.258,128.682 219.656,122.353 C219.348,119.115 219.854,116.016 221.088,113.629 C222.196,111.463 223.753,110.186 225.464,110.025 C228.32,109.738 232.726,114.342 233.46,119.474 C233.276,120.208 233.13,120.98 233.02,121.765 C232.689,124.159 232.748,126.516 233.174,128.69 Z M228.386,131.025 C230.104,131.098 231.588,129.064 231.69,126.487 C231.786,123.909 230.897,121.773 229.172,121.7 C227.446,121.641 225.963,123.667 225.875,126.244 C225.772,128.822 226.661,130.965 228.386,131.025 Z" id="Fill-119" fill="#F9EEDC"></path>
        <path d="M232.417,101.58 C232.645,101.191 232.902,100.817 233.167,100.479 C232.954,100.861 232.696,101.235 232.417,101.58" id="Fill-120" fill="#F9EEDC"></path>
        <polyline id="Fill-121" fill="#F9EEDC" points="227.696 102.16 227.645 102.182 227.682 102.16 227.696 102.16"></polyline>
        <path d="M227.219,71.747 C227.586,72.107 227.931,72.496 228.254,72.893 C229.37,74.251 230.273,75.742 231.022,77.284 C231.397,78.054 231.735,78.84 232.036,79.648 C232.183,80.051 232.322,80.449 232.454,80.881 C232.594,81.351 232.674,81.703 232.785,82.115 C233.196,83.715 233.563,85.338 233.901,86.968 C234.209,88.606 234.481,90.265 234.613,91.969 C234.723,93.672 234.723,95.42 234.378,97.182 C234.165,98.298 233.776,99.444 233.167,100.479 C232.902,100.817 232.645,101.191 232.417,101.58 C232.41,101.587 232.41,101.587 232.403,101.595 C232.256,101.779 232.102,101.948 231.94,102.117 L231.426,102.609 L231.169,102.851 L230.861,103.064 L230.251,103.49 L229.943,103.688 C229.84,103.753 229.752,103.784 229.657,103.834 L229.106,104.106 L228.834,104.239 L228.695,104.304 L228.577,104.356 L228.541,104.37 L228.46,104.4 L227.799,104.635 L227.109,104.811 C225.251,105.23 223.188,104.913 221.55,103.996 C221.168,103.79 220.809,103.563 220.471,103.313 C220.479,103.306 220.479,103.306 220.486,103.298 C220.735,103.064 221.021,102.88 221.286,102.697 C221.763,102.38 222.241,102.117 222.674,101.94 C223.893,102.601 225.266,102.799 226.602,102.498 L227.102,102.373 L227.601,102.19 L227.66,102.167 L227.682,102.16 L227.645,102.182 L227.696,102.16 L227.784,102.109 L228.063,101.977 L228.614,101.705 C228.702,101.661 228.805,101.617 228.878,101.566 L229.069,101.426 L229.466,101.147 L229.664,101.007 L229.848,100.831 L230.215,100.472 C231.169,99.48 231.75,98.166 232.021,96.712 C232.3,95.266 232.307,93.709 232.197,92.153 C232.072,90.588 231.808,89.017 231.507,87.446 C231.177,85.874 230.817,84.303 230.398,82.732 C230.295,82.357 230.186,81.909 230.097,81.593 C229.987,81.248 229.855,80.874 229.723,80.514 C229.444,79.787 229.135,79.068 228.79,78.37 C228.107,76.975 227.292,75.646 226.331,74.479 C226.059,74.148 225.772,73.832 225.479,73.538 C225.684,73.59 225.905,73.597 226.125,73.546 C226.918,73.369 227.41,72.584 227.233,71.791 C227.233,71.784 227.226,71.777 227.219,71.747" id="Fill-122" fill="#F9EEDC"></path>
        <path d="M227.219,71.747 C226.331,70.844 225.317,70.043 224.172,69.419 C224.01,69.331 223.849,69.25 223.68,69.177 C222.696,64.397 220.882,54.984 219.722,45.284 C218.4,34.197 217.145,23.719 227.828,21.75 C231.999,20.98 235.516,21.685 238.284,23.843 C241.728,26.531 243.784,31.428 244.21,38.007 C244.503,42.487 245.267,51.526 246.009,60.271 C246.618,67.408 247.051,72.62 247.36,76.417 C251.273,61.688 259.497,34.916 268.529,30.437 C270.276,29.564 272.083,29.504 273.75,30.253 C283.985,34.879 281.753,47.451 279.131,53.493 L266.928,87.174 C265.915,87.02 264.894,86.932 263.903,86.903 L276.385,52.451 C276.4,52.421 276.407,52.392 276.422,52.363 C276.437,52.326 278.096,48.463 278.36,44.087 C278.698,38.58 276.738,34.828 272.538,32.934 C271.671,32.537 270.813,32.581 269.829,33.066 C260.848,37.523 250.965,73.017 247.911,86.315 C247.911,86.323 247.911,86.323 247.911,86.329 C247.727,87.116 246.941,87.607 246.148,87.416 C245.392,87.24 244.915,86.513 245.032,85.757 C245.105,84.362 243.99,71.145 243.086,60.52 C242.345,51.76 241.574,42.706 241.28,38.199 C240.906,32.479 239.246,28.315 236.478,26.157 C234.4,24.541 231.668,24.027 228.364,24.636 C221.139,25.965 221.073,31.847 222.637,44.939 C224.23,58.207 227.042,70.925 227.219,71.747" id="Fill-123" fill="#F9EEDC"></path>
        <path d="M227.233,71.791 C227.41,72.584 226.918,73.369 226.125,73.546 C225.905,73.597 225.684,73.59 225.479,73.538 C225.141,73.201 224.789,72.885 224.421,72.599 C224.399,72.547 224.385,72.496 224.37,72.437 C224.363,72.401 224.091,71.203 223.68,69.177 C223.849,69.25 224.01,69.331 224.172,69.419 C225.317,70.043 226.331,70.844 227.219,71.747 C227.226,71.777 227.233,71.784 227.233,71.791" id="Fill-124" fill="#F9EEDC"></path>
        <path d="M224.421,72.599 C224.789,72.885 225.141,73.201 225.479,73.538 C224.994,73.436 224.583,73.083 224.421,72.599" id="Fill-125" fill="#F9EEDC"></path>
        <path d="M223.68,69.177 C224.091,71.203 224.363,72.401 224.37,72.437 C224.385,72.496 224.399,72.547 224.421,72.599 C223.966,72.239 223.481,71.916 222.982,71.644 C221.712,70.984 220.317,70.646 218.892,70.697 C217.468,70.763 216.029,71.174 214.648,71.798 C213.305,72.422 212.027,73.252 210.793,74.148 C210.815,74.126 210.83,74.104 210.852,74.082 L210.712,74.206 C210.742,74.185 210.764,74.17 210.793,74.148 C210.566,74.405 210.323,74.633 210.125,74.919 L209.795,75.36 L209.494,75.823 C209.383,75.977 209.295,76.138 209.208,76.307 C209.119,76.468 209.024,76.63 208.943,76.799 C208.781,77.144 208.62,77.482 208.488,77.834 C208.216,78.539 207.988,79.273 207.827,80.022 C207.753,80.397 207.688,80.771 207.636,81.153 C207.606,81.336 207.584,81.528 207.57,81.711 C207.555,81.895 207.541,82.1 207.541,82.233 C207.533,82.306 207.526,82.387 207.519,82.46 L207.511,82.496 C207.232,84.009 206.997,85.53 207.048,87.072 C207.071,88.606 207.232,90.155 207.541,91.704 C208.113,94.795 209.134,97.894 209.905,101.132 C210.316,102.741 210.617,104.408 210.874,106.074 C210.955,106.911 211.087,107.748 211.124,108.6 L211.249,111.081 C211.425,114.202 211.939,117.397 212.68,120.495 C213.415,123.601 214.384,126.656 215.64,129.563 C215.757,129.835 215.875,130.107 216,130.378 C216.528,131.553 217.115,132.691 217.747,133.8 C218.518,135.165 219.414,136.451 220.383,137.648 C221.345,138.852 222.432,139.931 223.628,140.834 C224.818,141.738 226.11,142.493 227.498,142.956 C228.886,143.419 230.339,143.632 231.808,143.618 C233.276,143.595 234.752,143.257 236.199,142.846 L236.287,142.825 C237.065,142.596 237.88,143.052 238.101,143.83 C238.321,144.609 237.873,145.423 237.095,145.644 C235.406,146.128 233.666,146.51 231.867,146.533 C230.068,146.547 228.254,146.283 226.551,145.695 C225.691,145.409 224.869,145.027 224.091,144.594 C223.313,144.153 222.578,143.654 221.874,143.118 C220.471,142.046 219.237,140.797 218.166,139.447 C217.086,138.11 216.117,136.693 215.287,135.209 C214.45,133.742 213.694,132.221 213.047,130.672 C211.726,127.58 210.734,124.379 209.971,121.134 C209.208,117.873 208.693,114.591 208.517,111.192 L208.407,108.784 C208.37,107.997 208.253,107.219 208.179,106.441 C207.944,104.877 207.673,103.321 207.276,101.764 C206.557,98.643 205.536,95.523 204.927,92.189 C204.596,90.53 204.427,88.812 204.413,87.086 C204.361,85.405 204.611,83.715 204.927,82.064 C204.919,82.108 204.919,82.152 204.919,82.203 L204.949,81.939 C204.941,81.983 204.934,82.02 204.927,82.064 C204.934,81.843 204.949,81.674 204.963,81.476 C204.985,81.248 205.015,81.021 205.044,80.8 C205.103,80.353 205.184,79.912 205.279,79.471 C205.47,78.59 205.734,77.732 206.064,76.887 C206.226,76.461 206.424,76.05 206.623,75.639 C206.718,75.433 206.835,75.235 206.946,75.036 C207.056,74.831 207.166,74.633 207.298,74.442 L207.68,73.869 L208.099,73.319 C208.37,72.944 208.708,72.614 209.017,72.268 C209.053,72.232 209.09,72.195 209.126,72.165 L209.156,72.144 C210.543,71.145 211.99,70.205 213.591,69.463 C215.191,68.751 216.954,68.23 218.804,68.163 C220.471,68.098 222.167,68.465 223.68,69.177" id="Fill-126" fill="#F9EEDC"></path>
        <path d="M223.981,148.118 C223.951,148.346 223.885,148.61 223.9,148.889 C223.871,149.462 223.974,150.108 224.34,150.71 C224.693,151.32 225.383,151.885 226.338,152.296 C228.262,153.133 231,153.368 233.886,153.214 C236.779,153.067 239.885,152.538 242.917,151.76 C244.43,151.371 245.936,150.923 247.389,150.424 C248.116,150.166 248.836,149.903 249.519,149.631 C250.187,149.367 250.973,149.043 251.567,148.757 C252.867,148.162 254.063,147.487 255.055,146.738 C256.046,145.996 256.817,145.166 257.243,144.344 C257.684,143.529 257.772,142.736 257.676,142.031 C257.573,141.319 257.302,140.695 257.016,140.202 C256.722,139.711 256.428,139.344 256.23,139.116 C257.045,138.044 257.383,137.133 257.507,136.715 C257.537,136.657 257.588,136.561 257.654,136.444 C257.757,136.502 257.845,136.576 257.933,136.657 L257.94,136.663 C257.94,136.663 257.992,136.715 258.087,136.811 C258.176,136.899 258.293,137.024 258.44,137.193 C258.726,137.53 259.123,138.036 259.534,138.756 C259.938,139.483 260.364,140.438 260.518,141.671 C260.679,142.89 260.452,144.396 259.718,145.68 C259.005,146.988 257.918,148.059 256.7,148.948 C255.481,149.844 254.108,150.577 252.676,151.209 C251.905,151.554 251.273,151.797 250.502,152.09 C249.746,152.384 248.99,152.641 248.226,152.898 C246.699,153.405 245.12,153.853 243.527,154.235 C240.34,154.991 237.095,155.505 233.989,155.615 C232.439,155.674 230.919,155.629 229.473,155.446 C228.026,155.263 226.646,154.94 225.398,154.367 C224.165,153.816 223.048,152.95 222.432,151.848 C221.792,150.761 221.661,149.638 221.719,148.823 C221.712,148.397 221.8,148.052 221.844,147.737 C221.881,147.42 221.969,147.178 222.021,146.973 C222.138,146.569 222.204,146.356 222.204,146.356 C222.343,145.893 222.769,145.585 223.232,145.585 C223.334,145.585 223.43,145.6 223.533,145.629 C224.098,145.79 224.421,146.37 224.274,146.936 L224.245,147.046 C224.245,147.046 224.194,147.215 224.113,147.538 C224.069,147.7 224.003,147.891 223.981,148.118" id="Fill-127" fill="#F9EEDC"></path>
        <path d="M223.849,98.519 C224.634,98.313 225.442,98.783 225.647,99.569 C225.853,100.354 225.383,101.155 224.598,101.36 C224.554,101.374 224.517,101.382 224.473,101.389 L224.429,101.397 C224.429,101.397 224.392,101.404 224.311,101.418 C224.267,101.426 224.165,101.441 224.025,101.478 C223.746,101.551 223.327,101.661 222.85,101.867 C222.791,101.889 222.732,101.91 222.674,101.94 C222.667,101.94 222.667,101.933 222.659,101.933 C221.837,101.493 221.088,100.868 220.419,100.126 C220.853,99.818 221.279,99.569 221.683,99.363 C222.277,99.047 222.813,98.841 223.203,98.709 C223.386,98.643 223.555,98.592 223.687,98.563 C223.79,98.534 223.849,98.519 223.849,98.519" id="Fill-128" fill="#F9EEDC"></path>
        <path d="M220.419,100.126 C221.088,100.868 221.837,101.493 222.659,101.933 C222.667,101.933 222.667,101.94 222.674,101.94 C222.241,102.117 221.763,102.38 221.286,102.697 C221.021,102.88 220.735,103.064 220.486,103.298 C220.479,103.306 220.479,103.306 220.471,103.313 C219.788,102.822 219.186,102.248 218.65,101.639 C218.694,101.587 218.738,101.543 218.79,101.499 C219.083,101.169 219.421,100.898 219.744,100.618 C219.972,100.442 220.199,100.274 220.419,100.126" id="Fill-129" fill="#F9EEDC"></path>
        <path d="M218.79,101.499 C218.738,101.543 218.694,101.587 218.65,101.639 C218.268,101.213 217.923,100.765 217.607,100.303 C216.594,98.849 215.853,97.27 215.272,95.655 C214.714,94.032 214.303,92.366 214.054,90.684 C213.929,89.839 213.833,88.995 213.782,88.151 C213.745,87.732 213.738,87.291 213.716,86.866 L213.708,85.624 C213.701,85 214.2,84.493 214.824,84.487 C215.449,84.479 215.962,84.979 215.97,85.595 L215.97,85.61 C215.977,86.014 215.97,86.44 215.984,86.828 C216.007,87.218 216.007,87.6 216.051,87.989 C216.102,88.782 216.19,89.56 216.308,90.338 C216.542,91.888 216.932,93.415 217.446,94.884 C217.975,96.337 218.643,97.741 219.509,98.974 C219.788,99.377 220.097,99.767 220.419,100.126 C220.199,100.274 219.972,100.442 219.744,100.618 C219.421,100.898 219.083,101.169 218.79,101.499" id="Fill-130" fill="#F9EEDC"></path>
        <path d="M218.54,105.7 C218.378,105.993 218.261,106.294 218.129,106.574 C217.982,106.852 217.93,107.146 217.835,107.403 C217.754,107.66 217.659,107.895 217.629,108.122 C217.585,108.343 217.541,108.534 217.512,108.696 C217.446,109.011 217.409,109.195 217.409,109.195 L217.387,109.29 C217.284,109.782 216.807,110.09 216.322,109.988 C215.867,109.9 215.559,109.466 215.61,109.011 C215.61,109.011 215.632,108.798 215.676,108.431 C215.698,108.241 215.72,108.02 215.75,107.755 C215.771,107.498 215.853,107.212 215.918,106.897 C216,106.58 216.043,106.228 216.183,105.875 C216.308,105.524 216.425,105.142 216.587,104.76 C216.778,104.393 216.946,103.996 217.167,103.615 C217.409,103.254 217.615,102.851 217.908,102.513 C218.144,102.204 218.386,101.904 218.65,101.639 C219.186,102.248 219.788,102.822 220.471,103.313 C220.207,103.519 219.972,103.776 219.737,104.018 C219.479,104.26 219.304,104.569 219.076,104.833 C218.877,105.112 218.716,105.42 218.54,105.7" id="Fill-131" fill="#F9EEDC"></path>
        <path d="M210.852,74.082 C210.83,74.104 210.815,74.126 210.793,74.148 C210.764,74.17 210.742,74.185 210.712,74.206 L210.852,74.082" id="Fill-132" fill="#F9EEDC"></path>
        <path d="M204.949,81.939 L204.919,82.203 C204.919,82.152 204.919,82.108 204.927,82.064 C204.934,82.02 204.941,81.983 204.949,81.939" id="Fill-133" fill="#F9EEDC"></path>
        <path d="M169.564,61.129 C178.544,55.159 183.295,48.338 183.295,41.4 C183.295,31.626 174.08,22.33 157.346,15.223 C140.208,7.947 117.402,3.938 93.112,3.938 C68.83,3.938 46.017,7.947 28.886,15.223 C12.152,22.33 2.937,31.626 2.937,41.4 C2.937,51.173 12.152,60.476 28.886,67.583 C46.017,74.861 68.83,78.869 93.112,78.869 C113.334,78.869 132.462,76.116 148.432,70.903 C148.586,70.851 148.74,70.829 148.887,70.829 C149.122,70.829 149.357,70.888 149.57,70.998 C149.915,71.182 150.18,71.497 150.297,71.871 C152.72,79.861 162.089,104.642 185.439,108.13 C176.327,102.946 170.548,94.26 168.595,82.621 C166.774,71.821 168.859,62.422 168.947,62.026 C169.028,61.659 169.249,61.335 169.564,61.129 Z M193.663,108.512 C194.324,108.725 194.742,109.364 194.684,110.054 C194.618,110.737 194.082,111.287 193.398,111.368 C193.362,111.375 192.503,111.478 191.063,111.478 C183.706,111.478 159.079,108.754 147.933,74.148 C131.962,79.163 113.048,81.807 93.112,81.807 C68.441,81.807 45.224,77.716 27.733,70.285 C9.847,62.686 0,52.428 0,41.4 C0,30.378 9.847,20.12 27.733,12.521 C45.224,5.09 68.441,1 93.112,1 C117.784,1 141.001,5.09 158.492,12.521 C176.378,20.12 186.232,30.378 186.232,41.4 C186.232,49.235 181.21,56.776 171.701,63.237 C171.29,65.381 170.005,73.421 171.503,82.218 C173.801,95.706 181.254,104.554 193.663,108.512 Z" id="Fill-134" fill="#F9EEDC"></path>
        <path d="M160.797,41.811 C160.797,42.641 161.201,43.008 162.082,43.044 L162.082,43.816 L157.383,43.816 L157.383,43.044 C158.279,43.008 158.668,42.641 158.668,41.811 L158.668,38.507 C158.668,37.332 158.301,36.782 157.508,36.782 C156.773,36.782 156.039,37.281 155.452,38.176 L155.452,41.811 C155.452,42.641 155.855,43.008 156.737,43.044 L156.737,43.816 L152.044,43.816 L152.044,43.044 C152.94,43.008 153.322,42.641 153.322,41.811 L153.322,38.272 C153.322,37.846 153.051,37.625 152.551,37.625 L152.111,37.625 L152.111,36.876 L154.666,35.482 L155.452,35.482 L155.452,37.075 C156.296,36.12 157.236,35.445 158.499,35.445 C159.894,35.445 160.797,36.341 160.797,37.721 L160.797,41.811" id="Fill-135" fill="#F9EEDC"></path>
        <path d="M148.549,30.768 C149.21,30.768 149.724,31.282 149.724,31.92 C149.724,32.581 149.196,33.095 148.549,33.095 C147.911,33.095 147.397,32.581 147.397,31.92 C147.397,31.282 147.911,30.768 148.549,30.768" id="Fill-136" fill="#F9EEDC"></path>
        <path d="M149.6,35.482 L149.6,41.811 C149.6,42.641 150.003,43.008 150.884,43.044 L150.884,43.816 L146.185,43.816 L146.185,43.044 C147.081,43.008 147.47,42.641 147.47,41.811 L147.47,38.272 C147.47,37.846 147.191,37.625 146.699,37.625 L146.259,37.625 L146.259,36.876 L148.807,35.482 L149.6,35.482" id="Fill-137" fill="#F9EEDC"></path>
        <path d="M141.757,58.919 L141.757,59.272 C140.913,59.617 140.509,60.058 140.142,60.851 L139.76,60.851 C139.408,59.896 138.82,59.566 138.233,59.272 L138.233,58.919 C138.842,58.648 139.43,58.281 139.797,57.363 L140.127,57.363 C140.568,58.185 140.95,58.575 141.757,58.919" id="Fill-138" fill="#F9EEDC"></path>
        <path d="M136.625,50.005 C136.625,48.809 138.233,47.729 140.032,47.729 C141.868,47.729 143.248,48.941 143.248,50.549 C143.248,51.819 142.514,52.774 140.546,54.059 C140.069,54.352 139.665,54.624 139.665,55.086 C139.665,55.432 139.885,55.674 140.216,55.674 C140.509,55.674 140.803,55.527 141.376,55.086 L141.794,55.652 C141.155,56.225 140.642,56.459 140.018,56.459 C138.879,56.459 137.976,55.527 137.976,54.316 C137.976,53.104 138.916,52.457 139.812,51.819 C140.605,51.283 141.559,50.629 141.559,49.763 C141.559,49.176 140.972,48.661 140.311,48.661 C139.907,48.661 139.591,48.809 139.247,49.139 C139.1,49.285 138.476,50.167 138.307,50.336 C137.976,50.659 137.705,50.791 137.374,50.791 C136.912,50.791 136.625,50.483 136.625,50.005" id="Fill-139" fill="#F9EEDC"></path>
        <path d="M132.417,39.828 C132.417,37.243 134.143,35.386 136.581,35.386 C138.512,35.386 139.775,36.583 140.201,38.286 L134.841,40.379 C135.392,41.796 136.434,42.582 137.756,42.582 C138.438,42.582 139.078,42.362 139.849,41.833 L140.311,42.362 C138.894,43.647 137.521,43.941 136.456,43.941 C134.18,43.941 132.417,42.163 132.417,39.828 Z M135.957,36.267 C135.002,36.267 134.437,37.024 134.437,38.324 C134.437,38.654 134.474,38.948 134.599,39.557 L136.948,38.654 C137.315,38.507 137.484,38.324 137.484,38.015 C137.484,37.134 136.728,36.267 135.957,36.267 Z" id="Fill-140" fill="#F9EEDC"></path>
        <path d="M131.573,54.734 C131.94,54.404 132.161,54.074 132.161,53.838 C132.161,53.471 131.867,53.302 131.184,53.287 L131.184,52.517 L135.318,52.517 L135.318,53.287 C134.51,53.375 133.85,53.728 133.13,54.389 L132.139,55.322 L134.584,58.883 C135.061,59.58 135.245,59.764 135.7,59.933 L135.7,60.703 L131.537,60.703 L131.537,59.933 C132.102,59.91 132.344,59.749 132.344,59.397 C132.344,59.213 132.249,58.978 132.087,58.721 L130.67,56.643 L129.752,57.488 L129.752,58.7 C129.752,59.507 130.156,59.896 131.037,59.933 L131.037,60.703 L126.345,60.703 L126.345,59.933 C127.241,59.896 127.63,59.529 127.63,58.7 L127.63,50.262 C127.63,49.859 127.351,49.638 126.859,49.638 L126.419,49.638 L126.419,48.882 L128.967,47.487 L129.752,47.487 L129.752,56.409 L131.573,54.734" id="Fill-141" fill="#F9EEDC"></path>
        <path d="M128.306,38.015 C128.306,37.134 127.549,36.267 126.778,36.267 C125.824,36.267 125.259,37.024 125.259,38.324 C125.259,38.654 125.295,38.948 125.42,39.557 L127.77,38.654 C128.137,38.507 128.306,38.324 128.306,38.015 Z M125.663,40.379 C126.213,41.796 127.256,42.582 128.578,42.582 C129.26,42.582 129.899,42.362 130.67,41.833 L131.133,42.362 C129.716,43.647 128.342,43.941 127.278,43.941 C125.001,43.941 123.239,42.163 123.239,39.828 C123.239,37.243 124.965,35.386 127.403,35.386 C129.334,35.386 130.597,36.583 131.022,38.286 L125.663,40.379 Z" id="Fill-142" fill="#F9EEDC"></path>
        <path d="M115.185,43.044 C116.08,43.008 116.462,42.641 116.462,41.811 L116.462,38.493 C116.462,37.773 116.19,37.625 115.691,37.625 L115.25,37.625 L115.25,36.876 L117.806,35.482 L118.591,35.482 L118.591,37.589 L119.179,36.928 C120.207,35.79 120.706,35.445 121.33,35.445 C121.955,35.445 122.505,35.974 122.96,37.038 C122.468,37.846 122.064,38.286 121.492,38.727 C120.963,37.575 120.611,37.134 120.244,37.134 C119.986,37.134 119.693,37.368 119.142,38.015 L118.591,38.676 L118.591,41.811 C118.591,42.641 118.995,43.008 119.876,43.044 L119.876,43.816 L115.185,43.816 L115.185,43.044" id="Fill-143" fill="#F9EEDC"></path>
        <path d="M119.142,53.963 C119.986,53.008 120.926,52.333 122.189,52.333 C123.584,52.333 124.488,53.229 124.488,54.61 L124.488,58.7 C124.488,59.529 124.892,59.896 125.772,59.933 L125.772,60.703 L121.073,60.703 L121.073,59.933 C121.969,59.896 122.358,59.529 122.358,58.7 L122.358,55.395 C122.358,54.22 121.991,53.669 121.198,53.669 C120.464,53.669 119.729,54.168 119.142,55.065 L119.142,58.7 C119.142,59.529 119.546,59.896 120.427,59.933 L120.427,60.703 L115.735,60.703 L115.735,59.933 C116.631,59.896 117.02,59.529 117.02,58.7 L117.02,55.159 C117.02,54.734 116.741,54.514 116.249,54.514 L115.809,54.514 L115.809,53.765 L118.356,52.369 L119.142,52.369 L119.142,53.963" id="Fill-144" fill="#F9EEDC"></path>
        <path d="M113.363,19.746 L112.115,19.746 L112.115,19.232 L115.434,16.243 L116.117,16.243 L115.53,18.741 L118.004,18.741 L117.747,19.746 L115.493,19.746 L115.493,24.225 C115.493,25.276 115.86,25.752 116.646,25.752 C117.035,25.752 117.512,25.547 117.894,25.18 L118.224,25.841 C117.453,26.758 116.667,27.162 115.64,27.162 C114.112,27.162 113.363,26.391 113.363,24.849 L113.363,19.746" id="Fill-145" fill="#F9EEDC"></path>
        <path d="M112.248,47.656 C112.901,47.656 113.415,48.169 113.415,48.809 C113.415,49.469 112.886,49.984 112.248,49.984 C111.601,49.984 111.087,49.469 111.087,48.809 C111.087,48.169 111.601,47.656 112.248,47.656" id="Fill-146" fill="#F9EEDC"></path>
        <path d="M113.29,58.7 C113.29,59.529 113.694,59.896 114.575,59.933 L114.575,60.703 L109.875,60.703 L109.875,59.933 C110.779,59.896 111.161,59.529 111.161,58.7 L111.161,55.159 C111.161,54.734 110.889,54.514 110.39,54.514 L109.949,54.514 L109.949,53.765 L112.497,52.369 L113.29,52.369 L113.29,58.7" id="Fill-147" fill="#F9EEDC"></path>
        <path d="M110.845,17.176 C110.537,17.859 110.111,18.828 108.789,19.034 L108.591,18.534 C109.398,18.204 109.78,17.764 109.78,17.14 C109.78,16.523 109.362,16.06 108.591,15.899 L108.591,15.509 C109.413,15.164 109.78,14.776 110.111,13.99 L110.426,13.99 C110.808,14.776 111.308,15.238 112.02,15.509 L112.02,15.862 C111.322,16.06 111.087,16.633 110.845,17.176" id="Fill-148" fill="#F9EEDC"></path>
        <path d="M109.178,46.789 C111.065,46.789 112.46,46.201 112.46,45.394 C112.46,44.381 111.197,44.367 108.422,44.308 L108.003,44.308 C107.431,44.697 107.1,45.152 107.1,45.577 C107.1,46.326 107.893,46.789 109.178,46.789 Z M113.084,38.418 C113.084,40.159 111.579,41.333 109.325,41.333 C108.995,41.333 108.664,41.297 108.333,41.26 C107.614,41.576 107.247,41.869 107.247,42.126 C107.247,42.384 107.709,42.493 108.715,42.493 L109.744,42.493 C112.188,42.493 113.951,43.023 113.951,44.659 C113.951,46.326 111.895,47.538 109.104,47.538 C106.975,47.538 105.595,46.9 105.595,45.886 C105.595,45.394 106.109,44.88 107.232,44.219 C106.182,44.035 105.69,43.61 105.69,42.898 C105.69,42.141 106.278,41.539 107.563,40.989 C106.476,40.526 105.727,39.645 105.727,38.543 C105.727,36.876 107.453,35.482 109.509,35.482 C110.646,35.482 111.564,35.849 112.335,36.598 L112.556,36.451 C113.452,35.753 113.951,35.459 114.208,35.459 C114.428,35.459 114.516,35.739 114.516,36.377 C114.516,37.097 114.443,37.207 114.024,37.207 L112.754,37.207 C112.996,37.684 113.084,37.993 113.084,38.418 Z M110.977,38.602 C110.977,37.185 110.353,36.289 109.398,36.289 C108.48,36.289 107.871,37.06 107.871,38.249 C107.871,39.682 108.495,40.548 109.523,40.548 C110.441,40.548 110.977,39.828 110.977,38.602 Z" id="Fill-149" fill="#F9EEDC"></path>
        <path d="M107.578,58.7 C107.578,59.529 107.981,59.896 108.862,59.933 L108.862,60.703 L104.17,60.703 L104.17,59.933 C105.066,59.896 105.456,59.529 105.456,58.7 L105.456,50.262 C105.456,49.859 105.176,49.638 104.685,49.638 L104.244,49.638 L104.244,48.882 L106.792,47.487 L107.578,47.487 L107.578,58.7" id="Fill-150" fill="#F9EEDC"></path>
        <path d="M98.862,40.379 C99.413,41.796 100.455,42.582 101.777,42.582 C102.459,42.582 103.099,42.362 103.87,41.833 L104.332,42.362 C102.915,43.647 101.542,43.941 100.477,43.941 C98.201,43.941 96.438,42.163 96.438,39.828 C96.438,37.243 98.164,35.386 100.602,35.386 C102.533,35.386 103.796,36.583 104.222,38.286 L98.862,40.379 Z M99.978,36.267 C99.023,36.267 98.458,37.024 98.458,38.324 C98.458,38.654 98.495,38.948 98.619,39.557 L100.969,38.654 C101.336,38.507 101.505,38.324 101.505,38.015 C101.505,37.134 100.749,36.267 99.978,36.267 Z" id="Fill-151" fill="#F9EEDC"></path>
        <path d="M106.425,24.923 C106.425,25.752 106.829,26.119 107.709,26.157 L107.709,26.927 L103.01,26.927 L103.01,26.157 C103.906,26.119 104.295,25.752 104.295,24.923 L104.295,21.618 C104.295,20.444 103.928,19.893 103.135,19.893 C102.401,19.893 101.667,20.392 101.079,21.288 L101.079,24.923 C101.079,25.752 101.483,26.119 102.364,26.157 L102.364,26.927 L97.672,26.927 L97.672,26.157 C98.568,26.119 98.95,25.752 98.95,24.923 L98.95,21.384 C98.95,20.957 98.678,20.738 98.179,20.738 L97.746,20.738 L97.746,19.989 L100.293,18.593 L101.079,18.593 L101.079,20.187 C101.923,19.232 102.863,18.557 104.126,18.557 C105.521,18.557 106.425,19.452 106.425,20.833 L106.425,24.923" id="Fill-152" fill="#F9EEDC"></path>
        <path d="M100.492,54.903 C100.492,54.022 99.743,53.156 98.972,53.156 C98.017,53.156 97.444,53.911 97.444,55.211 C97.444,55.541 97.489,55.835 97.613,56.445 L99.963,55.541 C100.33,55.395 100.492,55.211 100.492,54.903 Z M97.849,57.267 C98.399,58.685 99.449,59.47 100.771,59.47 C101.446,59.47 102.092,59.249 102.863,58.721 L103.319,59.249 C101.909,60.534 100.528,60.828 99.464,60.828 C97.195,60.828 95.433,59.051 95.433,56.716 C95.433,54.132 97.158,52.275 99.596,52.275 C101.52,52.275 102.79,53.471 103.208,55.174 L97.849,57.267 Z" id="Fill-153" fill="#F9EEDC"></path>
        <path d="M90.785,55.564 L90.785,58.7 C90.785,59.529 91.188,59.896 92.07,59.933 L92.07,60.703 L87.371,60.703 L87.371,59.933 C88.273,59.896 88.655,59.529 88.655,58.7 L88.655,55.38 C88.655,54.66 88.384,54.514 87.884,54.514 L87.444,54.514 L87.444,53.765 L89.999,52.369 L90.785,52.369 L90.785,54.477 L91.372,53.816 C92.4,52.678 92.892,52.333 93.516,52.333 C94.14,52.333 94.691,52.862 95.154,53.926 C94.654,54.734 94.25,55.174 93.685,55.616 C93.149,54.462 92.804,54.022 92.437,54.022 C92.18,54.022 91.886,54.257 91.335,54.903 L90.785,55.564" id="Fill-154" fill="#F9EEDC"></path>
        <path d="M96.453,22.867 C96.453,25.276 94.529,27.075 91.938,27.075 C89.537,27.075 87.664,25.216 87.664,22.83 C87.664,20.429 89.61,18.534 92.07,18.534 C94.603,18.534 96.453,20.356 96.453,22.867 Z M91.938,19.342 C90.711,19.342 90.087,20.319 90.087,22.375 C90.087,24.849 90.858,26.267 92.18,26.267 C93.428,26.267 94.03,25.201 94.03,23.124 C94.03,20.627 93.354,19.342 91.938,19.342 Z" id="Fill-155" fill="#F9EEDC"></path>
        <path d="M94.214,30.599 L94.214,42.582 L95.484,42.105 L95.484,43.081 L92.965,44.035 L92.084,44.035 L92.084,42.692 C91.115,43.647 90.286,44.035 89.257,44.035 C87.333,44.035 85.851,42.274 85.851,39.997 C85.851,37.501 87.613,35.518 89.867,35.518 C90.689,35.518 91.203,35.701 92.084,36.267 L92.084,33.374 C92.084,32.97 91.813,32.75 91.313,32.75 L90.873,32.75 L90.873,31.993 L93.428,30.599 L94.214,30.599 Z M92.084,37.575 C91.556,36.707 90.932,36.252 90.249,36.252 C88.986,36.252 88.119,37.575 88.119,39.484 C88.119,41.333 89.059,42.677 90.344,42.677 C90.946,42.677 91.534,42.384 92.084,41.775 L92.084,37.575 Z" id="Fill-156" fill="#F9EEDC"></path>
        <path d="M83.861,58.001 C83.861,59.051 84.228,59.529 85.021,59.529 C85.402,59.529 85.88,59.324 86.269,58.956 L86.6,59.617 C85.829,60.534 85.036,60.939 84.007,60.939 C82.487,60.939 81.739,60.167 81.739,58.625 L81.739,53.523 L80.49,53.523 L80.49,53.008 L83.809,50.02 L84.485,50.02 L83.897,52.517 L86.379,52.517 L86.122,53.523 L83.861,53.523 L83.861,58.001" id="Fill-157" fill="#F9EEDC"></path>
        <path d="M79.257,26.927 L72.443,26.927 L72.443,25.973 C73.618,25.936 74.065,25.422 74.065,24.064 L74.065,17.036 C74.065,15.678 73.618,15.142 72.443,15.106 L72.443,14.151 L79.125,14.151 C83.405,14.151 86.232,16.684 86.232,20.576 C86.232,24.152 83.75,26.927 79.257,26.927 Z M82.01,16.376 C81.166,15.532 80.321,15.216 78.743,15.201 L78.045,15.201 C76.833,15.201 76.687,15.238 76.687,16.097 L76.687,25.128 C76.687,25.679 76.871,25.863 77.421,25.863 L79.146,25.863 C81.9,25.863 83.42,24.005 83.42,20.65 C83.42,18.718 82.965,17.345 82.01,16.376 Z" id="Fill-158" fill="#F9EEDC"></path>
        <path d="M77.069,38.382 C77.069,37.391 76.555,36.818 75.659,36.818 C74.756,36.818 73.801,37.222 72.744,38.03 L72.156,37.552 C73.287,36.143 74.536,35.445 76.224,35.445 C78.28,35.445 79.22,36.289 79.22,38.161 L79.22,41.517 C79.22,41.848 79.345,42.053 79.565,42.053 C79.734,42.053 79.969,41.884 80.189,41.65 C80.263,41.539 80.373,41.466 80.41,41.466 C80.52,41.466 80.63,41.833 80.63,42.215 C80.63,42.825 79.528,43.926 78.464,43.926 C77.715,43.926 77.362,43.499 77.142,42.692 C75.931,43.463 75.049,43.926 73.985,43.926 C72.575,43.926 71.643,42.986 71.643,41.884 C71.643,41.37 71.877,40.783 72.296,40.401 C72.81,39.924 73.331,39.52 77.069,38.749 L77.069,38.382 Z M77.069,39.484 C75.438,39.939 74.08,40.342 74.08,41.444 C74.08,42.163 74.521,42.604 75.233,42.604 C75.82,42.604 76.32,42.31 77.069,41.869 L77.069,39.484 Z" id="Fill-159" fill="#F9EEDC"></path>
        <path d="M71.378,55.159 C71.378,54.734 71.106,54.514 70.607,54.514 L70.174,54.514 L70.174,53.765 L72.722,52.369 L73.507,52.369 L73.507,53.963 C74.352,53.008 75.292,52.333 76.555,52.333 C77.95,52.333 78.853,53.229 78.853,54.61 L78.853,58.7 C78.853,59.529 79.257,59.896 80.138,59.933 L80.138,60.703 L75.438,60.703 L75.438,59.933 C76.334,59.896 76.724,59.529 76.724,58.7 L76.724,55.395 C76.724,54.22 76.356,53.669 75.563,53.669 C74.829,53.669 74.095,54.168 73.507,55.065 L73.507,58.7 C73.507,59.529 73.911,59.896 74.792,59.933 L74.792,60.703 L70.101,60.703 L70.101,59.933 C70.996,59.896 71.378,59.529 71.378,58.7 L71.378,55.159" id="Fill-160" fill="#F9EEDC"></path>
        <path d="M63.595,57.267 C64.146,58.685 65.195,59.47 66.517,59.47 C67.193,59.47 67.839,59.249 68.61,58.721 L69.065,59.249 C67.655,60.534 66.275,60.828 65.21,60.828 C62.934,60.828 61.179,59.051 61.179,56.716 C61.179,54.132 62.897,52.275 65.342,52.275 C67.266,52.275 68.537,53.471 68.955,55.174 L63.595,57.267 Z M66.238,54.903 C66.238,54.022 65.489,53.156 64.718,53.156 C63.764,53.156 63.191,53.911 63.191,55.211 C63.191,55.541 63.235,55.835 63.36,56.445 L65.709,55.541 C66.077,55.395 66.238,55.211 66.238,54.903 Z" id="Fill-161" fill="#F9EEDC"></path>
        <path d="M63.521,42.582 C64.204,42.582 64.843,42.362 65.614,41.833 L66.077,42.362 C64.66,43.647 63.287,43.941 62.222,43.941 C59.945,43.941 58.183,42.163 58.183,39.828 C58.183,37.243 59.909,35.386 62.347,35.386 C64.278,35.386 65.541,36.583 65.966,38.286 L60.606,40.379 C61.157,41.796 62.2,42.582 63.521,42.582 Z M60.203,38.324 C60.203,38.654 60.239,38.948 60.364,39.557 L62.714,38.654 C63.081,38.507 63.25,38.324 63.25,38.015 C63.25,37.134 62.494,36.267 61.723,36.267 C60.768,36.267 60.203,37.024 60.203,38.324 Z" id="Fill-162" fill="#F9EEDC"></path>
        <path d="M54.769,59.47 C56.678,59.47 58.22,58.479 59.116,56.849 L59.982,57.363 C58.785,59.727 56.839,60.975 54.123,60.975 C48.785,60.975 47.081,56.922 47.081,54.33 C47.081,50.387 50.253,47.619 53.888,47.619 C55.518,47.619 56.546,48.037 57.721,48.772 C57.963,48.463 58.198,48.111 58.492,47.634 L59.432,47.634 L59.432,51.614 L58.528,51.614 C57.647,50.005 56.032,48.794 54.035,48.794 C51.553,48.794 49.945,50.865 49.945,53.999 C49.945,57.509 51.663,59.47 54.769,59.47" id="Fill-163" fill="#F9EEDC"></path>
        <path d="M51.589,37.001 C51.589,37.17 51.722,37.552 51.847,37.846 L53.631,41.811 L55.283,38.161 C55.43,37.868 55.54,37.442 55.54,37.222 C55.54,36.767 55.283,36.509 54.71,36.4 L54.71,35.628 L57.647,35.628 L57.647,36.4 C56.986,36.509 56.678,36.913 55.995,38.397 L53.521,43.816 L52.272,43.816 L49.629,37.956 C49.115,36.84 48.843,36.561 48.124,36.4 L48.124,35.628 L52.507,35.628 L52.507,36.4 C51.81,36.509 51.589,36.657 51.589,37.001" id="Fill-164" fill="#F9EEDC"></path>
        <path d="M39.937,40.401 C40.451,39.924 40.965,39.52 44.709,38.749 L44.709,38.382 C44.709,37.391 44.195,36.818 43.292,36.818 C42.396,36.818 41.442,37.222 40.377,38.03 L39.79,37.552 C40.928,36.143 42.176,35.445 43.865,35.445 C45.921,35.445 46.854,36.289 46.854,38.161 L46.854,41.517 C46.854,41.848 46.986,42.053 47.206,42.053 C47.368,42.053 47.61,41.884 47.83,41.65 C47.903,41.539 48.014,41.466 48.05,41.466 C48.161,41.466 48.271,41.833 48.271,42.215 C48.271,42.825 47.169,43.926 46.104,43.926 C45.348,43.926 45.003,43.499 44.783,42.692 C43.571,43.463 42.69,43.926 41.625,43.926 C40.216,43.926 39.276,42.986 39.276,41.884 C39.276,41.37 39.518,40.783 39.937,40.401 Z M42.874,42.604 C43.461,42.604 43.953,42.31 44.709,41.869 L44.709,39.484 C43.072,39.939 41.721,40.342 41.721,41.444 C41.721,42.163 42.154,42.604 42.874,42.604 Z" id="Fill-165" fill="#F9EEDC"></path>
        <path d="M31.875,41.811 C31.875,42.641 32.278,43.008 33.182,43.044 L33.182,43.816 L28.467,43.816 L28.467,43.044 C29.363,43.008 29.752,42.641 29.752,41.811 L29.752,33.374 C29.752,32.97 29.474,32.75 28.981,32.75 L28.541,32.75 L28.541,31.993 L31.089,30.599 L31.875,30.599 L31.875,37.024 C32.902,35.9 33.769,35.445 34.922,35.445 C36.302,35.445 37.257,36.363 37.257,37.7 L37.257,41.811 C37.257,42.641 37.661,43.008 38.542,43.044 L38.542,43.816 L33.82,43.816 L33.82,43.044 C34.738,43.008 35.127,42.641 35.127,41.811 L35.127,38.051 C35.127,37.243 34.665,36.73 33.953,36.73 C33.306,36.73 32.792,37.038 31.875,37.993 L31.875,41.811" id="Fill-166" fill="#F9EEDC"></path>
    </g>
</svg>